<svg width="57" height="57" viewBox="0 0 57 57" fill="none" xmlns="http://www.w3.org/2000/svg">
<path d="M15.019 50.8285C5.73271 43.3489 -2.72907 25.4628 9.10286 9.74483C19.7663 -4.4209 46.3528 1.61475 52.9266 18.7415C55.0082 22.2103 56.3448 39.1212 47.2295 48.2269C38.1143 57.3325 26.2094 56.6821 19.073 54.9477C12.8287 53.4301 3.49587 41.1585 1.6533 32.9424C0.340543 27.0888 0.886099 20.1512 4.39197 14.406C7.89783 8.66078 15.8956 2.80715 21.5926 1.61475C27.2339 0.434009 37.0405 0.422369 44.819 6.49278C51.0417 11.3491 54.5103 19.3196 55.5585 23.4029C56.8294 28.3531 55.2298 38.4708 52.3813 43.2761C48.4326 49.9373 41.856 53.1361 38.7933 53.9721C35.6161 54.8393 29.3712 55.9185 26.8514 55.4897C25.0707 55.1866 22.0495 53.4763 21.1544 51.2621C20.2779 49.0941 20.406 45.6889 21.3735 43.3489C22.3595 40.9641 24.8793 38.9045 26.0845 39.1213C27.0486 39.2947 27.6183 38.6876 27.947 38.4708L29.1521 40.2053L28.7139 38.4708C30.2842 39.5549 34.0691 40.6389 37.2594 40.6389C39.5602 40.6389 42.2991 40.9641 46.0241 36.8448C49.7491 32.7256 48.3248 25.0292 46.3528 22.1024C45.9684 21.532 42.9565 17.4412 41.2035 16.2488C39.745 15.2567 35.0683 11.5876 23.6742 13.5388C14.559 15.0998 11.5132 19.284 10.4176 21.6688C9.6269 23.3901 8.62088 30.1674 11.075 32.9424C14.1426 36.4112 13.9235 36.1944 17.7581 38.4708V44.2161C17.8676 43.4573 18.7441 41.4193 21.3735 39.3381C24.6602 36.7364 28.1661 35.1104 27.947 33.5928C27.702 31.8961 26.5096 31.0184 24.6602 30.7744C23.0169 30.5576 21.3735 30.7744 20.3875 31.6416C19.4014 32.5088 18.981 32.7989 18.6345 33.4844C18.4154 33.918 18.1963 35.544 19.8397 35.544C21.1544 35.544 24.149 33.9903 25.5367 33.2676C26.3036 32.7256 28.429 33.0075 29.919 33.2676C31.409 33.5278 33.7536 35.1104 35.6161 34.7852C37.0403 34.7852 38.0185 33.3181 38.2455 31.8584C38.4646 30.4492 36.8218 28.3889 35.5068 27.7389C35.5068 27.7389 34.9183 27.4774 34.4112 27.3053C33.9586 27.1517 33.2058 27.0888 33.2058 27.0888C32.4391 26.9801 30.9053 26.9801 29.1521 27.0888C27.4026 27.1974 24.1224 28.826 25.1029 29.7985C25.7404 30.4308 27.4708 28.5375 28.8237 28.1725C30.0289 27.8473 31.2016 28.6068 32.005 28.2816C32.918 28.0287 34.4112 26.9387 33.7536 25.2817C32.8472 22.9977 30.6022 22.4276 29.397 22.1024C28.4669 21.8514 27.5129 21.9083 26.5271 22.1024C25.7263 22.2601 25.099 22.4273 24.8796 23.8368C24.6872 25.0729 25.9749 26.4384 26.194 27.0888C26.4132 27.7392 27.1985 30.054 27.1985 30.054C27.637 30.8124 30.5328 30.4922 30.7958 29.7985C31.1244 28.9313 32.1323 27.1711 31.0143 25.1378C30.6055 24.3944 28.7139 22.6253 26.3382 23.078C24.9391 23.3446 23.0169 24.1938 24.0032 27.6305C24.3378 28.7964 30.0289 31.0993 32.22 29.7985C34.4112 28.4977 33.0801 24.143 31.5 24.143C29.9198 24.143 28.7139 24.2706 27.947 25.1378C27.3335 25.8316 26.961 26.4388 26.961 27.0888C26.961 27.7389 29.0467 29.618 29.5948 29.4009C30.1428 29.1837 30.5386 27.1861 29.919 26.1489C29.3889 25.2614 28.4534 24.1661 27.4117 24.143C25.2868 24.0958 32.4715 26.7506 31.0143 28.2816C29.5954 29.7724 28.2502 24.5452 26.5271 25.6796C25.8645 26.1158 26.4774 28.2882 25.7558 27.956C25.1624 27.6828 24.614 26.764 25.3809 25.6796C26.1478 24.5953 29.1521 29.7985 31.7794 30.5115C34.4067 31.2245 34.5367 29.6401 33.7536 28.9316C32.9613 28.2149 25.4271 26.1132 23.0169 27.956C20.6066 29.7988 20.2337 29.6727 18.6345 30.9912C17.3198 32.0752 15.6764 31.75 14.6904 30.5576C13.5029 29.1215 14.0331 25.246 15.6764 23.8368C17.4151 22.3459 19.0728 22.8612 19.2919 24.3788C19.5137 25.9153 18.6345 26.4384 17.3198 26.33C16.8316 26.2898 16.4434 24.9058 16.8816 23.9452C17.3198 22.9846 18.5547 20.8461 19.2919 19.9344C20.1683 18.8504 21.7876 17.669 23.236 17.0076C24.6602 16.3572 25.9749 15.8152 28.4948 16.2488C30.9561 16.6723 31.3433 19.1756 30.3573 20.6932C29.5871 21.8786 27.1801 20.1512 27.7279 18.742C28.2757 17.3328 29.1713 16.2233 30.1381 16.032C31.2337 15.8152 32.5484 15.8152 33.5345 16.6824C34.6021 17.6214 35.5065 18.0916 34.9587 19.1756C34.5205 20.0428 33.4249 20.8016 33.0962 21.6688C32.8771 21.9579 33.0962 23.2948 34.1918 23.2948C35.2177 23.2948 35.3969 22.1024 35.0683 21.6688L33.7536 19.0672C33.3153 18.0916 34.9675 17.658 35.8352 17.658C37.0403 17.658 38.0263 17.5496 39.1219 18.8504C40.2175 20.1512 40.7653 21.1268 40.3271 23.078C40.1029 24.0763 37.8072 25.246 36.8212 24.5956C35.8352 23.9452 37.0931 22.0736 37.9168 21.7772C39.1219 21.3436 41.5322 21.452 42.2991 22.1024C42.9698 22.6712 43.8393 24.3411 43.5043 26.33C43.2851 27.6308 43.2852 28.3479 41.7513 28.9316C40.3271 29.4736 38.9028 28.8232 39.1219 27.6308C39.3339 26.4772 40.2175 25.4628 41.4227 25.6796C42.5836 25.8885 44.3807 26.6552 44.2712 28.9316C44.1616 31.208 43.9935 31.3366 43.5043 32.1836C43.066 32.9424 41.5322 33.8096 40.7653 34.1348" stroke="#313714"/>
</svg>
