<svg width="102" height="102" viewBox="0 0 102 102" fill="none" xmlns="http://www.w3.org/2000/svg">
<path d="M26.4891 91.5973C9.60492 77.9979 -5.78013 45.4779 15.7325 16.8997C35.1206 -8.85618 83.4596 2.11772 95.4119 33.2572C99.1967 39.5642 101.627 70.3114 85.0537 86.867C68.4805 103.423 46.8352 102.24 33.8601 99.0867C22.5068 96.3274 5.53795 74.0154 2.18782 59.0772C-0.199013 48.4342 0.792907 35.8204 7.16721 25.3745C13.5415 14.9287 28.0828 4.28573 38.4411 2.11772C48.698 -0.0290741 66.5282 -0.0502386 80.6708 10.9869C91.9849 19.8166 98.2914 34.3084 100.197 41.7325C102.508 50.733 99.5997 69.1288 94.4206 77.8656C87.2411 89.9769 75.2837 95.7929 69.715 97.3129C63.9383 98.8896 52.5841 100.852 48.0025 100.072C44.7648 99.5212 39.2719 96.4115 37.6443 92.3856C36.0507 88.4438 36.2836 82.2526 38.0427 77.9979C39.8355 73.6619 44.417 69.9172 46.6082 70.3114C48.3611 70.6267 49.3969 69.523 49.9945 69.1288L52.1857 72.2823L51.3889 69.1288C54.244 71.0997 61.1255 73.0706 66.9262 73.0706C71.1094 73.0706 76.0893 73.6619 82.862 66.1724C89.6347 58.683 87.0451 44.6895 83.4596 39.368C82.7608 38.3309 77.2845 30.8931 74.0973 28.7251C71.4455 26.9212 62.9423 20.2502 42.2258 23.7978C25.6526 26.6359 20.1149 34.2436 18.123 38.5797C16.6853 41.7092 14.8561 54.0316 19.3182 59.0772C24.8957 65.3841 24.4973 64.9899 31.4692 69.1288V79.5747C31.6684 78.195 33.262 74.4897 38.0427 70.7056C44.0186 65.9754 50.3929 63.019 49.9945 60.2597C49.5491 57.1747 47.381 55.5789 44.0186 55.1353C41.0306 54.7411 38.0427 55.1353 36.2499 56.7121C34.4571 58.2888 33.6927 58.8161 33.0628 60.0626C32.6644 60.851 32.266 63.8074 35.2539 63.8074C37.6443 63.8074 43.089 60.9824 45.6122 59.6684C47.0066 58.683 50.871 59.1954 53.5801 59.6684C56.2891 60.1415 60.5519 63.019 63.9383 62.4277C66.5279 62.4277 68.3064 59.7601 68.719 57.1063C69.1174 54.5441 66.1305 50.798 63.7396 49.6161C63.7396 49.6161 62.6696 49.1406 61.7476 48.8278C60.9248 48.5485 59.556 48.4342 59.556 48.4342C58.1621 48.2365 55.3733 48.2365 52.1857 48.4342C49.0048 48.6316 43.0407 51.5927 44.8234 53.3609C45.9825 54.5105 49.1287 51.0683 51.5886 50.4045C53.7798 49.8132 55.912 51.1942 57.3728 50.6029C59.0328 50.143 61.7476 48.1613 60.552 45.1485C58.904 40.9959 54.8222 39.9593 52.631 39.368C50.9398 38.9117 49.2052 39.0151 47.4129 39.368C45.9569 39.6547 44.8164 39.9586 44.4175 42.5215C44.0677 44.769 46.409 47.2517 46.8074 48.4342C47.2058 49.6168 48.6337 53.8255 48.6337 53.8255C49.431 55.2044 54.6961 54.6222 55.1741 53.3609C55.7717 51.7841 57.6042 48.5838 55.5715 44.887C54.8283 43.5353 51.3889 40.3187 47.0695 41.1418C44.5257 41.6266 41.0306 43.1706 42.8239 49.419C43.4323 51.5389 53.7798 55.726 57.7637 53.3609C61.7476 50.9958 59.3275 43.0782 56.4545 43.0782C53.5815 43.0782 51.3889 43.3103 49.9945 44.887C48.879 46.1484 48.2017 47.2523 48.2017 48.4342C48.2017 49.6161 51.994 53.0328 52.9905 52.6379C53.987 52.2431 54.7065 48.611 53.5801 46.7252C52.6162 45.1116 50.9152 43.1202 49.0214 43.0782C45.1577 42.9924 58.221 47.8192 55.5715 50.6029C52.9917 53.3134 50.5459 43.8095 47.4129 45.872C46.2083 46.6651 47.3225 50.615 46.0106 50.011C44.9317 49.5143 43.9346 47.8436 45.3289 45.872C46.7233 43.9005 52.1857 53.3609 56.9625 54.6572C61.7394 55.9536 61.9759 53.0729 60.552 51.7848C59.1115 50.4817 45.413 46.6604 41.0306 50.011C36.6483 53.3615 35.9703 53.1322 33.0628 55.5295C30.6724 57.5004 27.6844 56.9092 25.8917 54.7411C23.7325 52.1301 24.6965 45.0837 27.6845 42.5215C30.8456 39.8108 33.8596 40.7477 34.2579 43.5069C34.6613 46.3005 33.0628 47.2517 30.6724 47.0546C29.7846 46.9814 29.0788 44.4651 29.8756 42.7186C30.6724 40.9721 32.9177 37.0838 34.2579 35.4262C35.8515 33.4553 38.7957 31.3073 41.429 30.1047C44.0186 28.9222 46.409 27.9367 50.9905 28.7251C55.4657 29.4952 56.1696 34.0466 54.3768 36.8058C52.9765 38.9611 48.6001 35.8204 49.5961 33.2582C50.5921 30.696 52.2205 28.6788 53.9785 28.3309C55.9704 27.9367 58.3608 27.9367 60.1536 29.5135C62.0947 31.2207 63.7391 32.0756 62.7431 34.0466C61.9463 35.6233 59.9544 37.0029 59.3568 38.5797C58.9584 39.1052 59.3568 41.536 61.3487 41.536C63.214 41.536 63.5399 39.368 62.9423 38.5797L60.552 33.8495C59.7552 32.0756 62.7592 31.2873 64.3367 31.2873C66.5279 31.2873 68.3206 31.0902 70.3126 33.4553C72.3046 35.8204 73.3005 37.5942 72.5038 41.1418C72.0961 42.9569 67.9222 45.0837 66.1295 43.9011C64.3367 42.7186 66.6238 39.3156 68.1214 38.7767C70.3126 37.9884 74.6949 38.1855 76.0893 39.368C77.3087 40.4021 78.8896 43.4384 78.2805 47.0546C77.8821 49.4197 77.8821 50.7235 75.0933 51.7848C72.5038 52.7702 69.9142 51.5877 70.3126 49.4197C70.698 47.3222 72.3046 45.4779 74.4957 45.872C76.6065 46.2518 79.874 47.6459 79.6749 51.7848C79.4757 55.9237 79.1699 56.1574 78.2805 57.6975C77.4837 59.0772 74.6949 60.6539 73.3006 61.2452" stroke="#313714"/>
</svg>
